<?xml version="1.0" encoding="utf-8"?>
<!-- Generator: Adobe Illustrator 20.1.0, SVG Export Plug-In . SVG Version: 6.00 Build 0)  -->
<svg version="1.1" id="Layer_1" xmlns="http://www.w3.org/2000/svg" xmlns:xlink="http://www.w3.org/1999/xlink" x="0px" y="0px"
	 viewBox="0 0 450 450" style="enable-background:new 0 0 450 450;" xml:space="preserve">
<style type="text/css">
	.st0{fill:#DEDFE0;}
</style>
<circle class="st0" cx="225" cy="225" r="218.3"/>
<g>
	<path d="M113.3,171.7h11.3v90.8h-11.3V171.7z"/>
	<path d="M199.5,231.1c0,22.9-16,32.9-30.8,32.9c-16.6,0-29.7-12.3-29.7-31.8c0-20.6,13.7-32.7,30.7-32.7
		C187.5,199.4,199.5,212.3,199.5,231.1z M150.5,231.7c0,13.6,7.7,23.8,18.7,23.8c10.7,0,18.8-10.1,18.8-24
		c0-10.5-5.2-23.7-18.5-23.7C156.3,207.8,150.5,220.1,150.5,231.7z"/>
	<path d="M266.6,253.5c0,14.3-2.9,22.9-8.8,28.4c-6.1,5.5-14.8,7.4-22.6,7.4c-7.4,0-15.6-1.8-20.6-5.1l2.8-8.7
		c4.1,2.7,10.5,5,18.2,5c11.5,0,20-6,20-21.7v-6.8h-0.3c-3.3,5.8-10.1,10.4-19.7,10.4c-15.3,0-26.3-13-26.3-30.2
		c0-21,13.7-32.7,28-32.7c10.7,0,16.5,5.5,19.3,10.6h0.3l0.4-9.3h10c-0.4,4.3-0.5,9.5-0.5,16.9V253.5z M255.4,225.1
		c0-1.9-0.1-3.6-0.6-5c-2-6.7-7.4-12-15.7-12c-10.7,0-18.4,9.1-18.4,23.4c0,12.2,6.3,22.3,18.3,22.3c7,0,13.3-4.3,15.6-11.5
		c0.6-1.9,0.9-4.1,0.9-6V225.1z"/>
	<path d="M341.2,231.1c0,22.9-16,32.9-30.8,32.9c-16.6,0-29.7-12.3-29.7-31.8c0-20.6,13.7-32.7,30.7-32.7
		C329.2,199.4,341.2,212.3,341.2,231.1z M292.2,231.7c0,13.6,7.7,23.8,18.7,23.8c10.7,0,18.8-10.1,18.8-24
		c0-10.5-5.2-23.7-18.5-23.7C298,207.8,292.2,220.1,292.2,231.7z"/>
</g>
</svg>
